<?xml version="1.0" ?><!DOCTYPE svg  PUBLIC '-//W3C//DTD SVG 1.1//EN'  'http://www.w3.org/Graphics/SVG/1.1/DTD/svg11.dtd'><svg height="100%" style="shape-rendering:geometricPrecision; text-rendering:geometricPrecision; image-rendering:optimizeQuality; fill-rule:evenodd; clip-rule:evenodd" viewBox="0 0 254000 254000" width="100%" xml:space="preserve" xmlns="http://www.w3.org/2000/svg" xmlns:xlink="http://www.w3.org/1999/xlink"><defs><style type="text/css">
   <![CDATA[
    .fil0 {fill:#333333}
   ]]>
  </style></defs><g id="图层_x0020_1"><path class="fil0" d="M127000 254000c70129,0 127000,-56871 127000,-127000 0,-70129 -56871,-127000 -127000,-127000 -70129,0 -127000,56871 -127000,127000 0,70129 56871,127000 127000,127000zm76620 -142511l-27326 -22561 -21107 -17421c-2672,-2205 -6157,-2642 -9289,-1159 -3129,1480 -5004,4448 -4994,7912l41 15810c-33482,9307 -65087,42284 -93311,90419l-426 29c30957,-27160 61906,-46027 93853,-45013l48 18971c10,3463 1899,6421 5038,7885 3138,1467 6623,1014 9283,-1205l21015 -17532 27207 -22701c2064,-1721 3146,-4036 3141,-6726 -7,-2687 -1100,-4997 -3173,-6708z"/></g></svg>